<?xml version="1.0" encoding="UTF-8" standalone="no"?>
<!-- Created with Inkscape (http://www.inkscape.org/) -->

<svg
   xmlns:dc="http://purl.org/dc/elements/1.1/"
   xmlns:cc="http://creativecommons.org/ns#"
   xmlns:rdf="http://www.w3.org/1999/02/22-rdf-syntax-ns#"
   xmlns:svg="http://www.w3.org/2000/svg"
   xmlns="http://www.w3.org/2000/svg"
   xmlns:xlink="http://www.w3.org/1999/xlink"
   xmlns:sodipodi="http://sodipodi.sourceforge.net/DTD/sodipodi-0.dtd"
   xmlns:inkscape="http://www.inkscape.org/namespaces/inkscape"
   width="30"
   height="30"
   id="svg3832"
   version="1.1"
   inkscape:version="0.48.4 r9939"
   sodipodi:docname="entry-run-modal.svg">
  <defs
     id="defs3834">
    <linearGradient
       y2="41.873585"
       x2="13.383318"
       y1="29.978811"
       x1="13.383318"
       gradientTransform="matrix(1.0619798,0,0,1.0088466,-0.27281518,-2.9408343)"
       gradientUnits="userSpaceOnUse"
       id="linearGradient3003"
       xlink:href="#linearGradient3818-9"
       inkscape:collect="always" />
    <linearGradient
       inkscape:collect="always"
       xlink:href="#linearGradient3818-9"
       id="linearGradient3811"
       x1="0"
       y1="15"
       x2="30"
       y2="15"
       gradientUnits="userSpaceOnUse"
       gradientTransform="matrix(0,1,-1,0,29.939998,18.053189)" />
    <linearGradient
       id="linearGradient3818-9">
      <stop
         style="stop-color:#51bbe9;stop-opacity:1;"
         offset="0"
         id="stop3820-4" />
      <stop
         style="stop-color:#1b62ad;stop-opacity:1;"
         offset="1"
         id="stop3822-0" />
    </linearGradient>
    <linearGradient
       y2="10"
       x2="20"
       y1="10"
       x1="0"
       gradientTransform="matrix(0,1,-1,0,-30.983807,-0.92607238)"
       gradientUnits="userSpaceOnUse"
       id="linearGradient3004"
       xlink:href="#linearGradient3818-9"
       inkscape:collect="always" />
  </defs>
  <sodipodi:namedview
     id="base"
     pagecolor="#000000"
     bordercolor="#666666"
     borderopacity="1.0"
     inkscape:pageopacity="0.78431373"
     inkscape:pageshadow="2"
     inkscape:zoom="1"
     inkscape:cx="15.781442"
     inkscape:cy="26.094757"
     inkscape:current-layer="layer1"
     showgrid="false"
     inkscape:grid-bbox="true"
     inkscape:document-units="px"
     fit-margin-top="0"
     fit-margin-left="0"
     fit-margin-right="0"
     fit-margin-bottom="0"
     inkscape:window-width="1920"
     inkscape:window-height="1018"
     inkscape:window-x="0"
     inkscape:window-y="26"
     inkscape:window-maximized="1"
     showborder="false"
     inkscape:showpageshadow="false">
    <inkscape:grid
       type="xygrid"
       id="grid3761"
       empspacing="5"
       visible="true"
       enabled="true"
       snapvisiblegridlinesonly="true" />
  </sodipodi:namedview>
  <metadata
     id="metadata3837">
    <rdf:RDF>
      <cc:Work
         rdf:about="">
        <dc:format>image/svg+xml</dc:format>
        <dc:type
           rdf:resource="http://purl.org/dc/dcmitype/StillImage" />
        <dc:title />
      </cc:Work>
    </rdf:RDF>
  </metadata>
  <g
     id="layer1"
     inkscape:label="Layer 1"
     inkscape:groupmode="layer"
     transform="translate(0.06000218,-18.053189)">
    <path
       style="fill:url(#linearGradient3811);fill-opacity:1.0"
       d="m 29.939998,20.053189 c 0,-1.108 -0.892,-2 -2,-2 l -26.0000002,0 c -1.10799998,0 -1.99999998,0.892 -1.99999998,2 l 0,26 c 0,1.108 0.892,2 1.99999998,2 l 26.0000002,0 c 1.108,0 2,-0.892 2,-2 l 0,-26 z m -1,0 0,26 c 0,0.554 -0.446,1 -1,1 l -26.0000002,0 c -0.554,0 -0.99999998,-0.446 -0.99999998,-1 l 0,-26 c 0,-0.554 0.44599998,-1 0.99999998,-1 l 26.0000002,0 c 0.554,0 1,0.446 1,1 z"
       id="rect2998"
       inkscape:connector-curvature="0" />
    <rect
       style="fill:#000000;fill-opacity:1;opacity:0.85"
       id="rect2998-3-4"
       width="28"
       height="28"
       x="0.93999779"
       y="19.053188"
       rx="1"
       ry="1" />
    <path
       style="font-size:41.40289688000000012px;font-style:normal;font-weight:normal;line-height:125%;letter-spacing:0px;word-spacing:0px;fill:url(#linearGradient3003);fill-opacity:1.0;stroke:none;font-family:Sans"
       d="m 12.939998,26.803189 0,1.03125 c -0.850593,0.06904 -1.54058,0.307594 -2.0625,0.75 -0.618418,0.524218 -0.9375012,1.238892 -0.9375002,2.15625 -1e-6,0.714016 0.1866922,1.293966 0.5625002,1.71875 0.375805,0.420276 1.095425,0.834636 2.15625,1.21875 l 0.28125,0.09375 0,2.84375 c -0.440256,-0.02317 -0.893104,-0.09187 -1.34375,-0.25 -0.523278,-0.185279 -1.06367,-0.464148 -1.6250002,-0.84375 l 0,2.0625 c 0.4947322,0.234991 1.0032152,0.413755 1.5312502,0.53125 0.479593,0.109832 0.961756,0.176534 1.4375,0.1875 l 0,1 1,0 0,-1.0625 c 0.868927,-0.0896 1.545873,-0.302682 2.03125,-0.6875 0.637437,-0.506132 0.968742,-1.259944 0.96875,-2.28125 -8e-6,-0.750158 -0.189408,-1.38242 -0.59375,-1.875 -0.404356,-0.492571 -1.049987,-0.889237 -1.90625,-1.1875 l -0.5,-0.1875 0,-2.53125 c 0.334098,0.03136 0.692111,0.103697 1.03125,0.21875 0.466185,0.158175 0.923073,0.384732 1.375,0.6875 l 0,-1.96875 c -0.480469,-0.207866 -0.97878,-0.364802 -1.46875,-0.46875 -0.316323,-0.07001 -0.621182,-0.100182 -0.9375,-0.125 l 0,-1.03125 -1,0 z m -0.03125,2.71875 c 0.0092,-0.0023 0.02191,0.0022 0.03125,0 l 0,2.125 c -0.290391,-0.128319 -0.531848,-0.262444 -0.65625,-0.375 -0.195042,-0.185274 -0.281253,-0.407312 -0.28125,-0.6875 -3e-6,-0.361516 0.135095,-0.649423 0.40625,-0.84375 0.135574,-0.09716 0.304961,-0.17017 0.5,-0.21875 z m 1.03125,4.65625 c 0.230133,0.115259 0.454854,0.238026 0.59375,0.40625 0.190276,0.225956 0.281244,0.478477 0.28125,0.78125 -6e-6,0.402197 -0.152083,0.71155 -0.4375,0.9375 -0.124142,0.09631 -0.269267,0.164329 -0.4375,0.21875 l 0,-2.34375 z"
       id="text3016"
       inkscape:connector-curvature="0" />
  </g>
</svg>
